<svg width="140" height="54" viewBox="0 0 140 54" fill="none" xmlns="http://www.w3.org/2000/svg">
<path d="M19.5 49V36.5H24.5V46.5H29.5V49H19.5ZM34.5 49V39H37V36.5H44.5V39H47V49H42V44H39.5V49H34.5ZM39.5 41.5H42V39.1H39.5V41.5ZM57 49V41.5H54.5V39H52V36.5H57V39H62V36.5H67V39H64.5V41.5H62V49H57Z" fill="white"/>
<path d="M72.5 49V36.5H80V39H75V41.5H80V44H75V49H72.5ZM87.5 49V46.5H85V39H87.5V36.5H92.5V39H95V46.5H92.5V49H87.5ZM87.5 46.4H92.5V39.1H87.5V46.4ZM100 49V36.5H107.5V39H110V41.5H107.5V46.5H110V49H107.5V46.5H105V44H102.5V49H100ZM102.5 41.5H107.4V39H102.5V41.5ZM117.5 39V36.5H125V39H117.5ZM115 46.5V39H117.5V46.5H115ZM122.5 46.5V44H120V41.5H125V46.5H122.5ZM117.5 49V46.5H122.5V49H117.5ZM130 49V36.5H137.5V39H132.5V41.5H137.5V44H132.5V46.5H137.5V49H130Z" fill="white"/>
<path d="M9.33333 9.33333H20.3333C22.2783 9.33333 24.1435 10.1059 25.5188 11.4812C26.8941 12.8565 27.6667 14.7217 27.6667 16.6667C27.6667 18.6116 26.8941 20.4769 25.5188 21.8521C24.1435 23.2274 22.2783 24 20.3333 24H9.33333V9.33333ZM2 38.6667V2H24C26.9174 2 29.7153 3.54523 31.7782 6.29577C33.8411 9.0463 35 12.7768 35 16.6667C35 20.5565 33.8411 24.287 31.7782 27.0376C29.7153 29.7881 26.9174 31.3333 24 31.3333H9.33333" fill="#262D34"/>
<path d="M9.33333 9.33333V31.3333M9.33333 9.33333H20.3333C22.2783 9.33333 24.1435 10.1059 25.5188 11.4812C26.8941 12.8565 27.6667 14.7217 27.6667 16.6667C27.6667 18.6116 26.8941 20.4768 25.5188 21.8521C24.1435 23.2274 22.2783 24 20.3333 24H9.33333V9.33333ZM9.33333 31.3333C7.38841 31.3333 5.52315 32.106 4.14788 33.4812C2.77262 34.8565 2 36.7217 2 38.6667M9.33333 31.3333H24C26.9174 31.3333 29.7153 29.7881 31.7782 27.0376C33.8411 24.287 35 20.5565 35 16.6667C35 12.7768 33.8411 9.0463 31.7782 6.29577C29.7153 3.54523 26.9174 2 24 2H2V38.6667M2 38.6667C2 40.6116 2.77262 42.4768 4.14788 43.8521C5.52315 45.2274 7.38841 46 9.33333 46V35" stroke="white" stroke-width="4" stroke-linecap="square" stroke-linejoin="round"/>
</svg>
