<svg width="20" height="21" viewBox="0 0 20 21" fill="none" xmlns="http://www.w3.org/2000/svg">
<g clip-path="url(#clip0_89_1916)">
<path d="M19.3441 8.0198L10.8801 0.839514C10.639 0.621018 10.3253 0.5 9.99994 0.5C9.67458 0.5 9.36086 0.621018 9.11979 0.839514L0.656695 8.0199C0.450039 8.20713 0.284879 8.43555 0.171844 8.69047C0.0588099 8.94538 0.000407589 9.22115 0.000396729 9.5L0.000396729 19.8357C0.000396727 20.0119 0.0703692 20.1808 0.194928 20.3054C0.319487 20.43 0.488434 20.5 0.6646 20.5L6.0004 20.5C6.55268 20.5 7.0004 20.0523 7.0004 19.5V15.5C7.0004 14.936 7.55249 14.4788 8.11669 14.4788H11.8832C12.4475 14.4788 13.0004 14.936 13.0004 15.5V19.5C13.0004 20.0523 13.4481 20.5 14.0004 20.5H19.3362C19.5124 20.5 19.6813 20.43 19.8059 20.3054C19.9304 20.1808 20.0004 20.0119 20.0004 19.8357V9.5C20.0004 9.22114 19.9419 8.94537 19.8289 8.69044C19.7159 8.43551 19.5507 8.20707 19.3441 8.0198Z" fill="white"/>
</g>
<defs>
<clipPath id="clip0_89_1916">
<rect width="20" height="20" fill="white" transform="translate(0 0.5)"/>
</clipPath>
</defs>
</svg>
